<svg xmlns="http://www.w3.org/2000/svg" xmlns:xlink="http://www.w3.org/1999/xlink" id="Group_61" data-name="Group 61" width="66.633" height="80.39" viewBox="0 0 66.633 80.39"><g id="Group_60" data-name="Group 60"><path id="Path_11" data-name="Path 11" d="M46.055,18.5H70.878a1.746,1.746,0,0,0,1.745-1.745V9.7a1.746,1.746,0,0,0-1.745-1.745H66.768a8.309,8.309,0,0,0-16.6,0H46.055A1.746,1.746,0,0,0,44.31,9.7v7.054A1.746,1.746,0,0,0,46.055,18.5M58.467,5.163A3.177,3.177,0,1,1,55.29,8.34a3.177,3.177,0,0,1,3.177-3.177" transform="translate(-31.758 0)" fill="#00b040"></path><path id="Path_12" data-name="Path 12" d="M49.821,45.245H45.065v3.923a5.944,5.944,0,0,1-5.945,5.945H14.3a5.944,5.944,0,0,1-5.945-5.945V45.245H3.864A3.875,3.875,0,0,0,0,49.109V103a3.857,3.857,0,0,0,3.864,3.865h37.9a16.464,16.464,0,0,1-3.21-9.6V89.775A5.17,5.17,0,0,1,43.223,84.6c4.637-.475,6.213-2.676,6.391-2.972a5.174,5.174,0,0,1,4.072-2.795V49.109a3.875,3.875,0,0,0-3.864-3.864M31.48,96.671a1.129,1.129,0,0,1-1.129,1.13H11.474a1.129,1.129,0,0,1-1.129-1.13V94.8a1.129,1.129,0,0,1,1.129-1.129H30.351A1.129,1.129,0,0,1,31.48,94.8Zm0-10.285a1.129,1.129,0,0,1-1.129,1.13H11.474a1.129,1.129,0,0,1-1.129-1.13V84.514a1.129,1.129,0,0,1,1.129-1.129H30.351a1.129,1.129,0,0,1,1.129,1.129ZM43.341,76.1a1.129,1.129,0,0,1-1.129,1.13H11.474a1.129,1.129,0,0,1-1.129-1.13V74.228a1.129,1.129,0,0,1,1.129-1.13H42.212a1.129,1.129,0,0,1,1.129,1.13Zm0-10.285a1.129,1.129,0,0,1-1.129,1.129H11.474a1.129,1.129,0,0,1-1.129-1.129V63.943a1.129,1.129,0,0,1,1.129-1.13H42.212a1.129,1.129,0,0,1,1.129,1.13Z" transform="translate(0 -32.428)" fill="#00b040"></path><path id="Path_13" data-name="Path 13" d="M170.933,181.2c-6.871-.7-8.905-4.548-9.007-4.749a1.871,1.871,0,0,0-3.378.018c-.019.04-2.072,4.023-9,4.73a1.871,1.871,0,0,0-1.68,1.861v7.494c0,9.317,11.048,15.1,11.518,15.338a1.872,1.872,0,0,0,1.709,0c.47-.241,11.518-6.022,11.518-15.338v-7.494a1.871,1.871,0,0,0-1.681-1.861m-5.891,11.418h-2.93v2.93a1.871,1.871,0,1,1-3.741,0v-2.93H155.44a1.871,1.871,0,0,1,0-3.741h2.931v-2.93a1.871,1.871,0,1,1,3.741,0v2.93h2.93a1.871,1.871,0,1,1,0,3.741" transform="translate(-105.981 -125.705)" fill="#00b040"></path></g></svg>