<svg xmlns="http://www.w3.org/2000/svg" xmlns:xlink="http://www.w3.org/1999/xlink" id="Group_67" data-name="Group 67" width="55" height="50.001" viewBox="0 0 55 50.001"><g id="Group_66" data-name="Group 66"><path id="Path_15" data-name="Path 15" d="M27.5,4.968C14.436-7.061-6.353,4.111,1.87,23.944h9.985L16.44,12.158a1.444,1.444,0,0,1,1.6-.9A1.48,1.48,0,0,1,19.2,12.374L23.853,31.1l3.261-6.366a1.444,1.444,0,0,1,1.285-.786h9.819a1.476,1.476,0,0,1,1.492,1.417,1.444,1.444,0,0,1-1.444,1.471H29.282l-4.615,9.01a1.444,1.444,0,0,1-2.686-.31l-4.5-18.088-3.294,8.468a1.444,1.444,0,0,1-1.346.92h-9.6C6.917,33.676,13.976,41.4,25.764,49.464a3.075,3.075,0,0,0,3.471,0C78.24,15.928,45.52-11.625,27.5,4.968" transform="translate(0 0)" fill="#00b040"></path></g></svg>