<svg xmlns="http://www.w3.org/2000/svg" xmlns:xlink="http://www.w3.org/1999/xlink" id="Group_43" data-name="Group 43" width="70" height="58.228" viewBox="0 0 70 58.228"><g id="Group_42" data-name="Group 42"><path id="Path_3" data-name="Path 3" d="M28.68,14.107l1.467-1.434a7.879,7.879,0,0,1,5.1-1.934H69.967c0-2.034-1.667-4.8-3.735-4.8H34.616c-2.234,0-4.669-.567-5.5-3.1A4.108,4.108,0,0,0,25.946,0H3.735A3.652,3.652,0,0,0,0,3.668V15.507H25.345a5.651,5.651,0,0,0,3.335-1.4" transform="translate(0 0)" fill="#00b040" fill-rule="evenodd"></path><path id="Path_4" data-name="Path 4" d="M41.653,56.34a8.079,8.079,0,0,1,3.435.767,6.558,6.558,0,0,1,3.368,3.869,8.435,8.435,0,0,1-.3,6.37c-2.1,4.469-12.006,13.206-12.606,13.707a.412.412,0,0,1-.267.133h-.067a.538.538,0,0,1-.3-.1c-.434-.367-10.505-9.238-12.606-13.74a8.435,8.435,0,0,1-.3-6.37,6.709,6.709,0,0,1,3.4-3.869,8.192,8.192,0,0,1,3.435-.767,7.145,7.145,0,0,1,6.236,3.268l.167.267.167-.3a7.194,7.194,0,0,1,6.236-3.235M31.915,45.268l-1.467,1.467a7.978,7.978,0,0,1-5.1,2.034H0V83.753a3.729,3.729,0,0,0,3.735,3.735h62.53A3.75,3.75,0,0,0,70,83.753V43.9H35.25a5.611,5.611,0,0,0-3.335,1.367" transform="translate(0 -29.26)" fill="#00b040" fill-rule="evenodd"></path></g></svg>