<svg xmlns="http://www.w3.org/2000/svg" xmlns:xlink="http://www.w3.org/1999/xlink" width="54" height="57" viewBox="0 0 54 57"><g id="Group_75" data-name="Group 75" transform="translate(-0.197 0.035)"><g id="Group_74" data-name="Group 74" transform="translate(0.162 0.162)"><path id="Path_27" data-name="Path 27" d="M51.337,48.81c-1.067-3.242-15.011-5.362-16.669-7.108S33.6,35.717,33.6,35.717C40.944,35.467,45.09,32.6,45.09,32.6c-3.553-2.494-2.962-9.851-4.737-21.323S27.01,0,27.01,0,15.442-.2,13.666,11.276,12.482,30.1,8.929,32.6c0,0,4.147,2.868,11.489,3.118,0,0,.591,4.24-1.067,5.986S3.749,45.568,2.682,48.81L0,56.879H54.019Z" transform="translate(-0.13 -0.137)" fill="#00b040"></path></g></g></svg>